<svg xmlns="http://www.w3.org/2000/svg" viewBox="0 0 512 512" role="img" aria-labelledby="title desc"><title id="title">AtivaDigitalOn</title><desc id="desc">Símbolo circular preto com letra A em degradê laranja e amarelo</desc><defs><linearGradient id="g" x1="0" y1="1" x2="1" y2="0"><stop offset="0" stop-color="#ff6a00"/><stop offset="1" stop-color="#ffc400"/></linearGradient></defs><rect width="512" height="512" rx="54" fill="#050505"/><circle cx="256" cy="256" r="220" fill="none" stroke="url(#g)" stroke-width="12"/><path fill="url(#g)" d="M139 383 239 115h78l101 268h-72l-22-66H225l-23 66h-63Zm107-126h58l-29-91-29 91Z"/><path fill="url(#g)" d="M115 331c67-11 149-29 225-67 43-22 79-45 111-65-37 42-81 80-135 112-60 36-130 61-201 70v-50Z"/><g fill="url(#g)"><rect x="91" y="291" width="22" height="22" transform="rotate(-10 102 302)"/><rect x="68" y="318" width="15" height="15" transform="rotate(-10 75 325)"/><rect x="105" y="265" width="17" height="17" transform="rotate(-10 113 273)"/></g></svg>